<svg id="visual" viewBox="0 0 960 540" width="960" height="540" xmlns="http://www.w3.org/2000/svg" xmlns:xlink="http://www.w3.org/1999/xlink" version="1.1"><rect x="0" y="0" width="960" height="540" fill="#1E293B"></rect><path d="M0 238L8.8 239.5C17.7 241 35.3 244 53.2 233.7C71 223.3 89 199.7 106.8 185.5C124.7 171.3 142.3 166.7 160 179C177.7 191.3 195.3 220.7 213.2 222.8C231 225 249 200 266.8 188.2C284.7 176.3 302.3 177.7 320 189.7C337.7 201.7 355.3 224.3 373.2 226.8C391 229.3 409 211.7 426.8 213.5C444.7 215.3 462.3 236.7 480 237C497.7 237.3 515.3 216.7 533.2 210.8C551 205 569 214 586.8 213.3C604.7 212.7 622.3 202.3 640 200.3C657.7 198.3 675.3 204.7 693.2 203.3C711 202 729 193 746.8 186.7C764.7 180.3 782.3 176.7 800 187.5C817.7 198.3 835.3 223.7 853.2 241C871 258.3 889 267.7 906.8 261.5C924.7 255.3 942.3 233.7 951.2 222.8L960 212L960 541L951.2 541C942.3 541 924.7 541 906.8 541C889 541 871 541 853.2 541C835.3 541 817.7 541 800 541C782.3 541 764.7 541 746.8 541C729 541 711 541 693.2 541C675.3 541 657.7 541 640 541C622.3 541 604.7 541 586.8 541C569 541 551 541 533.2 541C515.3 541 497.7 541 480 541C462.3 541 444.7 541 426.8 541C409 541 391 541 373.2 541C355.3 541 337.7 541 320 541C302.3 541 284.7 541 266.8 541C249 541 231 541 213.2 541C195.3 541 177.7 541 160 541C142.3 541 124.7 541 106.8 541C89 541 71 541 53.2 541C35.3 541 17.7 541 8.8 541L0 541Z" fill="#00c9ff"></path><path d="M0 231L8.8 236.8C17.7 242.7 35.3 254.3 53.2 261.2C71 268 89 270 106.8 267.5C124.7 265 142.3 258 160 262.3C177.7 266.7 195.3 282.3 213.2 290.3C231 298.3 249 298.7 266.8 302C284.7 305.3 302.3 311.7 320 301.5C337.7 291.3 355.3 264.7 373.2 255.2C391 245.7 409 253.3 426.8 256C444.7 258.7 462.3 256.3 480 255.5C497.7 254.7 515.3 255.3 533.2 251.2C551 247 569 238 586.8 247.2C604.7 256.3 622.3 283.7 640 293.3C657.7 303 675.3 295 693.2 292.3C711 289.7 729 292.3 746.8 282.3C764.7 272.3 782.3 249.7 800 237.7C817.7 225.7 835.3 224.3 853.2 233.5C871 242.7 889 262.3 906.8 268.8C924.7 275.3 942.3 268.7 951.2 265.3L960 262L960 541L951.2 541C942.3 541 924.7 541 906.8 541C889 541 871 541 853.2 541C835.3 541 817.7 541 800 541C782.3 541 764.7 541 746.8 541C729 541 711 541 693.2 541C675.3 541 657.7 541 640 541C622.3 541 604.7 541 586.8 541C569 541 551 541 533.2 541C515.3 541 497.7 541 480 541C462.3 541 444.7 541 426.8 541C409 541 391 541 373.2 541C355.3 541 337.7 541 320 541C302.3 541 284.7 541 266.8 541C249 541 231 541 213.2 541C195.3 541 177.7 541 160 541C142.3 541 124.7 541 106.8 541C89 541 71 541 53.2 541C35.3 541 17.7 541 8.8 541L0 541Z" fill="#00afff"></path><path d="M0 374L8.8 361.3C17.7 348.7 35.3 323.3 53.2 319.8C71 316.3 89 334.7 106.8 342.8C124.7 351 142.3 349 160 353.8C177.7 358.7 195.3 370.3 213.2 372.7C231 375 249 368 266.8 367.7C284.7 367.3 302.3 373.7 320 364.3C337.7 355 355.3 330 373.2 318C391 306 409 307 426.8 309.7C444.7 312.3 462.3 316.7 480 326.7C497.7 336.7 515.3 352.3 533.2 362.3C551 372.3 569 376.7 586.8 376C604.7 375.3 622.3 369.7 640 364.2C657.7 358.7 675.3 353.3 693.2 341.8C711 330.3 729 312.7 746.8 313.7C764.7 314.7 782.3 334.3 800 337.8C817.7 341.3 835.3 328.7 853.2 323.8C871 319 889 322 906.8 327C924.7 332 942.3 339 951.2 342.5L960 346L960 541L951.2 541C942.3 541 924.7 541 906.8 541C889 541 871 541 853.2 541C835.3 541 817.7 541 800 541C782.3 541 764.7 541 746.8 541C729 541 711 541 693.2 541C675.3 541 657.7 541 640 541C622.3 541 604.7 541 586.8 541C569 541 551 541 533.2 541C515.3 541 497.7 541 480 541C462.3 541 444.7 541 426.8 541C409 541 391 541 373.2 541C355.3 541 337.7 541 320 541C302.3 541 284.7 541 266.8 541C249 541 231 541 213.2 541C195.3 541 177.7 541 160 541C142.3 541 124.7 541 106.8 541C89 541 71 541 53.2 541C35.3 541 17.7 541 8.8 541L0 541Z" fill="#0090ff"></path><path d="M0 375L8.8 377C17.7 379 35.3 383 53.2 388.5C71 394 89 401 106.8 398.3C124.7 395.7 142.3 383.3 160 380.7C177.7 378 195.3 385 213.2 390C231 395 249 398 266.8 398.7C284.7 399.3 302.3 397.7 320 394.3C337.7 391 355.3 386 373.2 380C391 374 409 367 426.8 365.2C444.7 363.3 462.3 366.7 480 375C497.7 383.3 515.3 396.7 533.2 400.8C551 405 569 400 586.8 400.7C604.7 401.3 622.3 407.7 640 414.7C657.7 421.7 675.3 429.3 693.2 426.7C711 424 729 411 746.8 405C764.7 399 782.3 400 800 394.5C817.7 389 835.3 377 853.2 378.3C871 379.7 889 394.3 906.8 396.7C924.7 399 942.3 389 951.2 384L960 379L960 541L951.2 541C942.3 541 924.7 541 906.8 541C889 541 871 541 853.2 541C835.3 541 817.7 541 800 541C782.3 541 764.7 541 746.8 541C729 541 711 541 693.2 541C675.3 541 657.7 541 640 541C622.3 541 604.7 541 586.8 541C569 541 551 541 533.2 541C515.3 541 497.7 541 480 541C462.3 541 444.7 541 426.8 541C409 541 391 541 373.2 541C355.3 541 337.7 541 320 541C302.3 541 284.7 541 266.8 541C249 541 231 541 213.2 541C195.3 541 177.7 541 160 541C142.3 541 124.7 541 106.8 541C89 541 71 541 53.2 541C35.3 541 17.7 541 8.8 541L0 541Z" fill="#006bff"></path><path d="M0 442L8.8 450C17.7 458 35.3 474 53.2 478.7C71 483.3 89 476.7 106.8 466.7C124.7 456.7 142.3 443.3 160 441.7C177.7 440 195.3 450 213.2 457.8C231 465.7 249 471.3 266.8 468.7C284.7 466 302.3 455 320 451.8C337.7 448.7 355.3 453.3 373.2 459.2C391 465 409 472 426.8 468.8C444.7 465.7 462.3 452.3 480 445.3C497.7 438.3 515.3 437.7 533.2 441.5C551 445.3 569 453.7 586.8 458.7C604.7 463.7 622.3 465.3 640 461.7C657.7 458 675.3 449 693.2 449.3C711 449.7 729 459.3 746.8 458.8C764.7 458.3 782.3 447.7 800 441.7C817.7 435.7 835.3 434.3 853.2 433.8C871 433.3 889 433.7 906.8 438.5C924.7 443.3 942.3 452.7 951.2 457.3L960 462L960 541L951.2 541C942.3 541 924.7 541 906.8 541C889 541 871 541 853.2 541C835.3 541 817.7 541 800 541C782.3 541 764.7 541 746.8 541C729 541 711 541 693.2 541C675.3 541 657.7 541 640 541C622.3 541 604.7 541 586.8 541C569 541 551 541 533.2 541C515.3 541 497.7 541 480 541C462.3 541 444.7 541 426.8 541C409 541 391 541 373.2 541C355.3 541 337.7 541 320 541C302.3 541 284.7 541 266.8 541C249 541 231 541 213.2 541C195.3 541 177.7 541 160 541C142.3 541 124.7 541 106.8 541C89 541 71 541 53.2 541C35.3 541 17.7 541 8.8 541L0 541Z" fill="#0036ff"></path></svg>